<?xml version="1.0" encoding="iso-8859-1"?>
<!-- Uploaded to: SVG Repo, www.svgrepo.com, Generator: SVG Repo Mixer Tools -->
<svg fill="#000000" class="size-10 sm:size-12" version="1.1" id="Layer_1" xmlns="http://www.w3.org/2000/svg" xmlns:xlink="http://www.w3.org/1999/xlink" 
	 viewBox="0 0 512 512" xml:space="preserve">
<g>
	<g>
		<path d="M221.867,0H30.72c-9.425,0-17.067,7.641-17.067,17.067v477.867c0,9.425,7.641,17.067,17.067,17.067h191.147
			c9.425,0,17.067-7.641,17.067-17.067V17.067C238.933,7.641,231.292,0,221.867,0z M126.293,448.284
			c-26.977,0-48.924-21.948-48.924-48.924c0-26.977,21.948-48.924,48.924-48.924s48.924,21.948,48.924,48.924
			C175.218,426.337,153.27,448.284,126.293,448.284z M158.151,303.787H94.436c-9.425,0-17.067-7.641-17.067-17.067
			c0-9.425,7.641-17.067,17.067-17.067h63.716c9.425,0,17.067,7.641,17.067,17.067C175.218,296.145,167.576,303.787,158.151,303.787
			z M158.151,242.347H94.436c-9.425,0-17.067-7.641-17.067-17.067s7.641-17.067,17.067-17.067h63.716
			c9.425,0,17.067,7.641,17.067,17.067S167.576,242.347,158.151,242.347z M175.218,144.498c0,9.425-7.641,17.067-17.067,17.067
			H94.436c-9.425,0-17.067-7.641-17.067-17.067V80.782c0-9.425,7.641-17.067,17.067-17.067h63.716
			c9.425,0,17.067,7.641,17.067,17.067V144.498z"/>
	</g>
</g>
<g>
	<g>
		<path d="M481.28,0H290.133c-9.425,0-17.067,7.641-17.067,17.067v477.867c0,9.425,7.641,17.067,17.067,17.067H481.28
			c9.425,0,17.067-7.641,17.067-17.067V17.067C498.347,7.641,490.705,0,481.28,0z M385.707,448.284
			c-26.977,0-48.924-21.948-48.924-48.924c0-26.977,21.948-48.924,48.924-48.924s48.924,21.948,48.924,48.924
			C434.631,426.337,412.683,448.284,385.707,448.284z M417.564,303.787h-63.716c-9.425,0-17.067-7.641-17.067-17.067
			c0-9.425,7.641-17.067,17.067-17.067h63.716c9.425,0,17.067,7.641,17.067,17.067C434.631,296.145,426.99,303.787,417.564,303.787z
			 M417.564,242.347h-63.716c-9.425,0-17.067-7.641-17.067-17.067s7.641-17.067,17.067-17.067h63.716
			c9.425,0,17.067,7.641,17.067,17.067S426.99,242.347,417.564,242.347z M434.631,144.498c0,9.425-7.641,17.067-17.067,17.067
			h-63.716c-9.425,0-17.067-7.641-17.067-17.067V80.782c0-9.425,7.641-17.067,17.067-17.067h63.716
			c9.425,0,17.067,7.641,17.067,17.067V144.498z"/>
	</g>
</g>
</svg>